<svg width="104" height="23" viewBox="0 0 104 23" fill="none" xmlns="http://www.w3.org/2000/svg">
<path fill-rule="evenodd" clip-rule="evenodd" d="M5.13166 13.1602L4.13638 15.0336V21.3273H0.916382V0.83637H4.13638V9.76455L8.35166 0.83637H11.5717L7.09293 9.96946L11.5717 21.3273H8.26384L5.13166 13.1602ZM16.1173 16.6144C16.1173 17.356 16.2685 17.878 16.571 18.1805C16.8735 18.4829 17.2784 18.6342 17.7858 18.6342C18.2932 18.6342 18.6982 18.4829 19.0007 18.1805C19.3031 17.878 19.4544 17.356 19.4544 16.6144V5.54928C19.4544 4.8077 19.3031 4.28567 19.0007 3.98319C18.6982 3.6807 18.2932 3.52946 17.7858 3.52946C17.2784 3.52946 16.8735 3.6807 16.571 3.98319C16.2685 4.28567 16.1173 4.8077 16.1173 5.54928V16.6144ZM12.8973 5.75419C12.8973 4.09539 13.3169 2.82204 14.156 1.9341C14.9952 1.04615 16.2051 0.602188 17.7858 0.602188C19.3666 0.602188 20.5765 1.04615 21.4157 1.9341C22.2548 2.82204 22.6744 4.09539 22.6744 5.75419V16.4095C22.6744 18.0683 22.2548 19.3416 21.4157 20.2296C20.5765 21.1175 19.3666 21.5615 17.7858 21.5615C16.2051 21.5615 14.9952 21.1175 14.156 20.2296C13.3169 19.3416 12.8973 18.0683 12.8973 16.4095V5.75419ZM27.9518 6.48601V21.3273H25.0538V0.83637H29.0935L32.4013 13.1016V0.83637H35.27V21.3273H31.9622L27.9518 6.48601ZM37.5031 5.75419C37.5031 4.09539 37.8983 2.82204 38.6887 1.9341C39.479 1.04615 40.6646 0.602188 42.2453 0.602188C43.826 0.602188 45.0116 1.04615 45.8019 1.9341C46.5923 2.82204 46.9875 4.09539 46.9875 5.75419V6.39819H43.9431V5.54928C43.9431 4.8077 43.8016 4.28567 43.5187 3.98319C43.2357 3.6807 42.8405 3.52946 42.3331 3.52946C41.8257 3.52946 41.4305 3.6807 41.1476 3.98319C40.8646 4.28567 40.7231 4.8077 40.7231 5.54928C40.7231 6.25183 40.8792 6.87143 41.1915 7.4081C41.5037 7.94477 41.894 8.45216 42.3624 8.93028C42.8307 9.4084 43.3333 9.88652 43.8699 10.3646C44.4066 10.8428 44.9091 11.3648 45.3775 11.9307C45.8458 12.4967 46.2361 13.1407 46.5484 13.8627C46.8606 14.5848 47.0167 15.4337 47.0167 16.4095C47.0167 18.0683 46.6118 19.3416 45.8019 20.2296C44.992 21.1175 43.7968 21.5615 42.216 21.5615C40.6353 21.5615 39.44 21.1175 38.6301 20.2296C37.8202 19.3416 37.4153 18.0683 37.4153 16.4095V15.1507H40.4597V16.6144C40.4597 17.356 40.6109 17.8731 40.9134 18.1658C41.2159 18.4586 41.6208 18.6049 42.1282 18.6049C42.6356 18.6049 43.0405 18.4586 43.343 18.1658C43.6455 17.8731 43.7967 17.356 43.7967 16.6144C43.7967 15.9118 43.6406 15.2922 43.3284 14.7556C43.0161 14.2189 42.6258 13.7115 42.1575 13.2334C41.6891 12.7552 41.1866 12.2771 40.6499 11.799C40.1133 11.3209 39.6107 10.7989 39.1424 10.2329C38.674 9.66697 38.2837 9.02298 37.9715 8.30092C37.6592 7.57885 37.5031 6.72995 37.5031 5.75419ZM48.2546 0.83637H58.2073V3.76364H54.8409V21.3273H51.6209V3.76364H48.2546V0.83637ZM66.6755 21.3273C66.6364 21.1907 66.5974 21.0638 66.5584 20.9467C66.5193 20.8296 66.4852 20.6833 66.4559 20.5076C66.4266 20.332 66.4071 20.1076 66.3974 19.8344C66.3876 19.5612 66.3827 19.2196 66.3827 18.8098V15.5898C66.3827 14.6336 66.2169 13.9603 65.8851 13.57C65.5533 13.1797 65.0167 12.9846 64.2751 12.9846H63.1627V21.3273H59.9427V0.83637H64.802C66.4803 0.83637 67.6951 1.22667 68.4465 2.00728C69.1978 2.78789 69.5735 3.96854 69.5735 5.54928V7.15928C69.5735 9.26693 68.8709 10.6525 67.4658 11.316C68.2855 11.6478 68.8465 12.1893 69.149 12.9406C69.4515 13.692 69.6027 14.6043 69.6027 15.6776V18.8391C69.6027 19.3465 69.6222 19.7905 69.6613 20.171C69.7003 20.5516 69.7979 20.937 69.954 21.3273H66.6755ZM63.1627 3.76364V10.0573H64.4215C65.0264 10.0573 65.4997 9.90116 65.8412 9.58892C66.1827 9.27667 66.3535 8.71074 66.3535 7.8911V5.87128C66.3535 5.1297 66.2217 4.59304 65.9583 4.26128C65.6948 3.92952 65.2801 3.76364 64.7142 3.76364H63.1627ZM75.1144 0.83637V16.6436C75.1144 17.3852 75.2656 17.9024 75.5681 18.1951C75.8706 18.4878 76.2755 18.6342 76.7829 18.6342C77.2903 18.6342 77.6953 18.4878 77.9977 18.1951C78.3002 17.9024 78.4515 17.3852 78.4515 16.6436V0.83637H81.4958V16.4387C81.4958 18.0975 81.0909 19.3709 80.281 20.2588C79.4711 21.1468 78.2758 21.5907 76.6951 21.5907C75.1144 21.5907 73.9191 21.1468 73.1092 20.2588C72.2993 19.3709 71.8944 18.0975 71.8944 16.4387V0.83637H75.1144ZM92.8202 0.83637H102.773V3.76364H99.4066V21.3273H96.1866V3.76364H92.8202V0.83637Z" fill="white"/>
<path d="M5.13166 13.1602L5.5985 12.9811L5.20528 11.9558L4.6901 12.9256L5.13166 13.1602ZM4.13638 15.0336L3.69482 14.7991L3.63638 14.9091V15.0336H4.13638ZM4.13638 21.3273V21.8273H4.63638V21.3273H4.13638ZM0.916382 21.3273H0.416382V21.8273H0.916382V21.3273ZM0.916382 0.83637V0.33637H0.416382V0.83637H0.916382ZM4.13638 0.83637H4.63638V0.33637H4.13638V0.83637ZM4.13638 9.76455H3.63638L4.58852 9.97802L4.13638 9.76455ZM8.35166 0.83637V0.33637H8.0348L7.89952 0.6229L8.35166 0.83637ZM11.5717 0.83637L12.0206 1.05652L12.3737 0.33637H11.5717V0.83637ZM7.09293 9.96946L6.644 9.74931L6.54681 9.94752L6.62779 10.1529L7.09293 9.96946ZM11.5717 21.3273V21.8273H12.3063L12.0368 21.1439L11.5717 21.3273ZM8.26384 21.3273L7.79699 21.5063L7.92008 21.8273H8.26384V21.3273ZM27.9518 6.48601L28.4345 6.35558L27.4518 6.48601H27.9518ZM27.9518 21.3273V21.8273H28.4518V21.3273H27.9518ZM25.0538 21.3273H24.5538V21.8273H25.0538V21.3273ZM25.0538 0.83637V0.33637H24.5538V0.83637H25.0538ZM29.0935 0.83637L29.5762 0.706176L29.4765 0.33637H29.0935V0.83637ZM32.4013 13.1016L31.9185 13.2318L32.9013 13.1016H32.4013ZM32.4013 0.83637V0.33637H31.9013V0.83637H32.4013ZM35.27 0.83637H35.77V0.33637H35.27V0.83637ZM35.27 21.3273V21.8273H35.77V21.3273H35.27ZM31.9622 21.3273L31.4795 21.4577L31.5794 21.8273H31.9622V21.3273ZM46.9875 6.39819V6.89819H47.4875V6.39819H46.9875ZM43.9431 6.39819H43.4431V6.89819H43.9431V6.39819ZM43.9431 5.54928H44.4431H43.9431ZM37.4153 15.1507V14.6507H36.9153V15.1507H37.4153ZM40.4597 15.1507H40.9597V14.6507H40.4597V15.1507ZM42.1282 18.6049V18.1049V18.6049ZM43.7967 16.6144H43.2967H43.7967ZM48.2546 0.83637V0.33637H47.7546V0.83637H48.2546ZM58.2073 0.83637H58.7073V0.33637H58.2073V0.83637ZM58.2073 3.76364V4.26364H58.7073V3.76364H58.2073ZM54.8409 3.76364V3.26364H54.3409V3.76364H54.8409ZM54.8409 21.3273V21.8273H55.3409V21.3273H54.8409ZM51.6209 21.3273H51.1209V21.8273H51.6209V21.3273ZM51.6209 3.76364H52.1209V3.26364H51.6209V3.76364ZM48.2546 3.76364H47.7546V4.26364H48.2546V3.76364ZM66.6755 21.3273L66.1947 21.4646L66.2983 21.8273H66.6755V21.3273ZM63.1627 12.9846V12.4846H62.6627V12.9846H63.1627ZM63.1627 21.3273V21.8273H63.6627V21.3273H63.1627ZM59.9427 21.3273H59.4427V21.8273H59.9427V21.3273ZM59.9427 0.83637V0.33637H59.4427V0.83637H59.9427ZM67.4658 11.316L67.2523 10.8639L66.2203 11.3512L67.2782 11.7795L67.4658 11.316ZM69.954 21.3273V21.8273H70.6925L70.4182 21.1416L69.954 21.3273ZM63.1627 3.76364V3.26364H62.6627V3.76364H63.1627ZM63.1627 10.0573H62.6627V10.5573H63.1627V10.0573ZM64.7142 3.76364V4.26364V3.76364ZM75.1144 0.83637H75.6144V0.33637H75.1144V0.83637ZM78.4515 0.83637V0.33637H77.9515V0.83637H78.4515ZM81.4958 0.83637H81.9958V0.33637H81.4958V0.83637ZM81.4958 16.4387H81.9958H81.4958ZM71.8944 0.83637V0.33637H71.3944V0.83637H71.8944ZM92.8202 0.83637V0.33637H92.3202V0.83637H92.8202ZM102.773 0.83637H103.273V0.33637H102.773V0.83637ZM102.773 3.76364V4.26364H103.273V3.76364H102.773ZM99.4066 3.76364V3.26364H98.9066V3.76364H99.4066ZM99.4066 21.3273V21.8273H99.9066V21.3273H99.4066ZM96.1866 21.3273H95.6866V21.8273H96.1866V21.3273ZM96.1866 3.76364H96.6866V3.26364H96.1866V3.76364ZM92.8202 3.76364H92.3202V4.26364H92.8202V3.76364ZM4.6901 12.9256L3.69482 14.7991L4.57794 15.2682L5.57321 13.3948L4.6901 12.9256ZM3.63638 15.0336V21.3273H4.63638V15.0336H3.63638ZM4.13638 20.8273H0.916382V21.8273H4.13638V20.8273ZM1.41638 21.3273V0.83637H0.416382V21.3273H1.41638ZM0.916382 1.33637H4.13638V0.33637H0.916382V1.33637ZM3.63638 0.83637V9.76455H4.63638V0.83637H3.63638ZM4.58852 9.97802L8.8038 1.04984L7.89952 0.6229L3.68424 9.55108L4.58852 9.97802ZM8.35166 1.33637H11.5717V0.33637H8.35166V1.33637ZM11.1227 0.616223L6.644 9.74931L7.54186 10.1896L12.0206 1.05652L11.1227 0.616223ZM6.62779 10.1529L11.1065 21.5107L12.0368 21.1439L7.55807 9.78604L6.62779 10.1529ZM11.5717 20.8273H8.26384V21.8273H11.5717V20.8273ZM8.73068 21.1482L5.5985 12.9811L4.66481 13.3392L7.79699 21.5063L8.73068 21.1482ZM15.6173 16.6144C15.6173 17.3982 15.7724 18.0889 16.2175 18.534L16.9246 17.8269C16.7647 17.667 16.6173 17.3137 16.6173 16.6144H15.6173ZM16.2175 18.534C16.6309 18.9475 17.1723 19.1342 17.7858 19.1342V18.1342C17.3845 18.1342 17.1161 18.0184 16.9246 17.8269L16.2175 18.534ZM17.7858 19.1342C18.3993 19.1342 18.9407 18.9475 19.3542 18.534L18.6471 17.8269C18.4556 18.0184 18.1871 18.1342 17.7858 18.1342V19.1342ZM19.3542 18.534C19.7993 18.0889 19.9544 17.3982 19.9544 16.6144H18.9544C18.9544 17.3137 18.807 17.667 18.6471 17.8269L19.3542 18.534ZM19.9544 16.6144V5.54928H18.9544V16.6144H19.9544ZM19.9544 5.54928C19.9544 4.76547 19.7993 4.07472 19.3542 3.62964L18.6471 4.33674C18.807 4.49663 18.9544 4.84993 18.9544 5.54928H19.9544ZM19.3542 3.62964C18.9407 3.21616 18.3993 3.02946 17.7858 3.02946V4.02946C18.1871 4.02946 18.4556 4.14524 18.6471 4.33674L19.3542 3.62964ZM17.7858 3.02946C17.1723 3.02946 16.6309 3.21616 16.2175 3.62964L16.9246 4.33674C17.1161 4.14524 17.3845 4.02946 17.7858 4.02946V3.02946ZM16.2175 3.62964C15.7724 4.07472 15.6173 4.76547 15.6173 5.54928H16.6173C16.6173 4.84993 16.7647 4.49663 16.9246 4.33674L16.2175 3.62964ZM15.6173 5.54928V16.6144H16.6173V5.54928H15.6173ZM13.3973 5.75419C13.3973 4.17661 13.7954 3.04361 14.5194 2.27753L13.7926 1.59067C12.8383 2.60047 12.3973 4.01417 12.3973 5.75419H13.3973ZM14.5194 2.27753C15.2384 1.51674 16.3 1.10219 17.7858 1.10219V0.102188C16.1102 0.102188 14.7519 0.57557 13.7926 1.59067L14.5194 2.27753ZM17.7858 1.10219C19.2716 1.10219 20.3333 1.51674 21.0523 2.27753L21.779 1.59067C20.8197 0.57557 19.4615 0.102188 17.7858 0.102188V1.10219ZM21.0523 2.27753C21.7762 3.04361 22.1744 4.17661 22.1744 5.75419H23.1744C23.1744 4.01417 22.7334 2.60047 21.779 1.59067L21.0523 2.27753ZM22.1744 5.75419V16.4095H23.1744V5.75419H22.1744ZM22.1744 16.4095C22.1744 17.987 21.7762 19.12 21.0523 19.8861L21.779 20.573C22.7334 19.5632 23.1744 18.1495 23.1744 16.4095H22.1744ZM21.0523 19.8861C20.3333 20.6469 19.2716 21.0615 17.7858 21.0615V22.0615C19.4615 22.0615 20.8197 21.5881 21.779 20.573L21.0523 19.8861ZM17.7858 21.0615C16.3 21.0615 15.2384 20.6469 14.5194 19.8861L13.7926 20.573C14.7519 21.5881 16.1102 22.0615 17.7858 22.0615V21.0615ZM14.5194 19.8861C13.7954 19.12 13.3973 17.987 13.3973 16.4095H12.3973C12.3973 18.1495 12.8383 19.5632 13.7926 20.573L14.5194 19.8861ZM13.3973 16.4095V5.75419H12.3973V16.4095H13.3973ZM27.4518 6.48601V21.3273H28.4518V6.48601H27.4518ZM27.9518 20.8273H25.0538V21.8273H27.9518V20.8273ZM25.5538 21.3273V0.83637H24.5538V21.3273H25.5538ZM25.0538 1.33637H29.0935V0.33637H25.0538V1.33637ZM28.6107 0.966563L31.9185 13.2318L32.884 12.9714L29.5762 0.706176L28.6107 0.966563ZM32.9013 13.1016V0.83637H31.9013V13.1016H32.9013ZM32.4013 1.33637H35.27V0.33637H32.4013V1.33637ZM34.77 0.83637V21.3273H35.77V0.83637H34.77ZM35.27 20.8273H31.9622V21.8273H35.27V20.8273ZM32.4449 21.1968L28.4345 6.35558L27.4691 6.61644L31.4795 21.4577L32.4449 21.1968ZM38.0031 5.75419C38.0031 4.16955 38.3805 3.03227 39.0621 2.26653L38.3152 1.60166C37.416 2.61182 37.0031 4.02123 37.0031 5.75419H38.0031ZM39.0621 2.26653C39.729 1.51732 40.7577 1.10219 42.2453 1.10219V0.102188C40.5714 0.102188 39.229 0.574982 38.3152 1.60166L39.0621 2.26653ZM42.2453 1.10219C43.7329 1.10219 44.7616 1.51732 45.4285 2.26653L46.1754 1.60166C45.2616 0.574982 43.9191 0.102188 42.2453 0.102188V1.10219ZM45.4285 2.26653C46.11 3.03227 46.4875 4.16955 46.4875 5.75419H47.4875C47.4875 4.02123 47.0746 2.61182 46.1754 1.60166L45.4285 2.26653ZM46.4875 5.75419V6.39819H47.4875V5.75419H46.4875ZM46.9875 5.89819H43.9431V6.89819H46.9875V5.89819ZM44.4431 6.39819V5.54928H43.4431V6.39819H44.4431ZM44.4431 5.54928C44.4431 4.77176 44.3002 4.08669 43.8838 3.64161L43.1535 4.32477C43.3031 4.48466 43.4431 4.84364 43.4431 5.54928H44.4431ZM43.8838 3.64161C43.4856 3.21598 42.9454 3.02946 42.3331 3.02946V4.02946C42.7356 4.02946 42.9857 4.14543 43.1535 4.32477L43.8838 3.64161ZM42.3331 3.02946C41.7208 3.02946 41.1806 3.21598 40.7824 3.64161L41.5127 4.32477C41.6805 4.14543 41.9306 4.02946 42.3331 4.02946V3.02946ZM40.7824 3.64161C40.3661 4.08669 40.2231 4.77176 40.2231 5.54928H41.2231C41.2231 4.84364 41.3631 4.48466 41.5127 4.32477L40.7824 3.64161ZM40.2231 5.54928C40.2231 6.32832 40.397 7.0369 40.7593 7.65954L41.6236 7.15665C41.3614 6.70596 41.2231 6.17534 41.2231 5.54928H40.2231ZM40.7593 7.65954C41.0939 8.23467 41.5101 8.77475 42.0052 9.28017L42.7196 8.58039C42.2779 8.12956 41.9135 7.65486 41.6236 7.15665L40.7593 7.65954ZM42.0052 9.28017C42.482 9.76695 42.9928 10.2529 43.5373 10.738L44.2025 9.99131C43.6737 9.52018 43.1794 9.04986 42.7196 8.58039L42.0052 9.28017ZM43.5373 10.738C44.0547 11.1989 44.5397 11.7026 44.9923 12.2495L45.7627 11.612C45.2785 11.027 44.7585 10.4866 44.2025 9.99131L43.5373 10.738ZM44.9923 12.2495C45.4284 12.7766 45.7946 13.3795 46.0895 14.0612L47.0073 13.6643C46.6776 12.9019 46.2632 12.2168 45.7627 11.612L44.9923 12.2495ZM46.0895 14.0612C46.3689 14.7075 46.5167 15.486 46.5167 16.4095H47.5167C47.5167 15.3814 47.3523 14.4621 47.0073 13.6643L46.0895 14.0612ZM46.5167 16.4095C46.5167 17.9913 46.131 19.1268 45.4325 19.8926L46.1713 20.5665C47.0926 19.5564 47.5167 18.1452 47.5167 16.4095H46.5167ZM45.4325 19.8926C44.7448 20.6466 43.7029 21.0615 42.216 21.0615V22.0615C43.8906 22.0615 45.2393 21.5884 46.1713 20.5665L45.4325 19.8926ZM42.216 21.0615C40.7292 21.0615 39.6872 20.6466 38.9995 19.8926L38.2607 20.5665C39.1928 21.5884 40.5414 22.0615 42.216 22.0615V21.0615ZM38.9995 19.8926C38.301 19.1268 37.9153 17.9913 37.9153 16.4095H36.9153C36.9153 18.1452 37.3394 19.5564 38.2607 20.5665L38.9995 19.8926ZM37.9153 16.4095V15.1507H36.9153V16.4095H37.9153ZM37.4153 15.6507H40.4597V14.6507H37.4153V15.6507ZM39.9597 15.1507V16.6144H40.9597V15.1507H39.9597ZM39.9597 16.6144C39.9597 17.3958 40.1137 18.0878 40.5657 18.5251L41.2611 17.8065C41.1081 17.6584 40.9597 17.3161 40.9597 16.6144H39.9597ZM40.5657 18.5251C40.98 18.9261 41.5194 19.1049 42.1282 19.1049V18.1049C41.7222 18.1049 41.4518 17.9911 41.2611 17.8065L40.5657 18.5251ZM42.1282 19.1049C42.737 19.1049 43.2764 18.9261 43.6907 18.5251L42.9953 17.8065C42.8046 17.9911 42.5342 18.1049 42.1282 18.1049V19.1049ZM43.6907 18.5251C44.1427 18.0878 44.2967 17.3958 44.2967 16.6144H43.2967C43.2967 17.3161 43.1483 17.6584 42.9953 17.8065L43.6907 18.5251ZM44.2967 16.6144C44.2967 15.8353 44.1228 15.1268 43.7606 14.5041L42.8962 15.007C43.1584 15.4577 43.2967 15.9883 43.2967 16.6144H44.2967ZM43.7606 14.5041C43.4259 13.929 43.0098 13.3889 42.5147 12.8835L41.8003 13.5833C42.2419 14.0341 42.6063 14.5088 42.8962 15.007L43.7606 14.5041ZM42.5147 12.8835C42.0378 12.3967 41.527 11.9108 40.9825 11.4257L40.3173 12.1723C40.8461 12.6435 41.3404 13.1138 41.8003 13.5833L42.5147 12.8835ZM40.9825 11.4257C40.4652 10.9647 39.9802 10.461 39.5276 9.91413L38.7572 10.5517C39.2413 11.1367 39.7614 11.677 40.3173 12.1723L40.9825 11.4257ZM39.5276 9.91413C39.0914 9.3871 38.7252 8.7842 38.4304 8.10246L37.5125 8.49937C37.8422 9.26176 38.2566 9.94685 38.7572 10.5517L39.5276 9.91413ZM38.4304 8.10246C38.1509 7.45618 38.0031 6.67761 38.0031 5.75419H37.0031C37.0031 6.78229 37.1675 7.70153 37.5125 8.49937L38.4304 8.10246ZM48.2546 1.33637H58.2073V0.33637H48.2546V1.33637ZM57.7073 0.83637V3.76364H58.7073V0.83637H57.7073ZM58.2073 3.26364H54.8409V4.26364H58.2073V3.26364ZM54.3409 3.76364V21.3273H55.3409V3.76364H54.3409ZM54.8409 20.8273H51.6209V21.8273H54.8409V20.8273ZM52.1209 21.3273V3.76364H51.1209V21.3273H52.1209ZM51.6209 3.26364H48.2546V4.26364H51.6209V3.26364ZM48.7546 3.76364V0.83637H47.7546V3.76364H48.7546ZM67.1562 21.1899C67.1155 21.0474 67.0743 20.9135 67.0327 20.7886L66.084 21.1048C66.1205 21.2141 66.1574 21.334 66.1947 21.4646L67.1562 21.1899ZM67.0327 20.7886C67.0047 20.7045 66.9758 20.5856 66.9491 20.4254L65.9627 20.5898C65.9946 20.781 66.034 20.9548 66.084 21.1048L67.0327 20.7886ZM66.9491 20.4254C66.9247 20.2792 66.9064 20.0783 66.897 19.8165L65.8977 19.8522C65.9079 20.1369 65.9286 20.3849 65.9627 20.5898L66.9491 20.4254ZM66.897 19.8165C66.8876 19.5514 66.8827 19.2163 66.8827 18.8098H65.8827C65.8827 19.223 65.8876 19.5709 65.8977 19.8522L66.897 19.8165ZM66.8827 18.8098V15.5898H65.8827V18.8098H66.8827ZM66.8827 15.5898C66.8827 14.6052 66.7178 13.7777 66.2661 13.2462L65.5041 13.8938C65.7159 14.143 65.8827 14.6619 65.8827 15.5898H66.8827ZM66.2661 13.2462C65.8029 12.7013 65.0958 12.4846 64.2751 12.4846V13.4846C64.9375 13.4846 65.3038 13.6582 65.5041 13.8938L66.2661 13.2462ZM64.2751 12.4846H63.1627V13.4846H64.2751V12.4846ZM62.6627 12.9846V21.3273H63.6627V12.9846H62.6627ZM63.1627 20.8273H59.9427V21.8273H63.1627V20.8273ZM60.4427 21.3273V0.83637H59.4427V21.3273H60.4427ZM59.9427 1.33637H64.802V0.33637H59.9427V1.33637ZM64.802 1.33637C66.4176 1.33637 67.4701 1.71385 68.0862 2.35401L68.8067 1.66054C67.9202 0.739489 66.543 0.33637 64.802 0.33637V1.33637ZM68.0862 2.35401C68.714 3.00623 69.0735 4.03889 69.0735 5.54928H70.0735C70.0735 3.89819 69.6816 2.56955 68.8067 1.66054L68.0862 2.35401ZM69.0735 5.54928V7.15928H70.0735V5.54928H69.0735ZM69.0735 7.15928C69.0735 9.15446 68.4196 10.3127 67.2523 10.8639L67.6793 11.7681C69.3223 10.9923 70.0735 9.37939 70.0735 7.15928H69.0735ZM67.2782 11.7795C67.9848 12.0655 68.4383 12.5142 68.6852 13.1274L69.6128 12.7539C69.2547 11.8644 68.5861 11.23 67.6534 10.8525L67.2782 11.7795ZM68.6852 13.1274C68.9574 13.8035 69.1027 14.6486 69.1027 15.6776H70.1027C70.1027 14.56 69.9456 13.5805 69.6128 12.7539L68.6852 13.1274ZM69.1027 15.6776V18.8391H70.1027V15.6776H69.1027ZM69.1027 18.8391C69.1027 19.3584 69.1227 19.8201 69.1639 20.222L70.1587 20.12C70.1218 19.7608 70.1027 19.3346 70.1027 18.8391H69.1027ZM69.1639 20.222C69.2081 20.6531 69.3181 21.0838 69.4898 21.513L70.4182 21.1416C70.2777 20.7902 70.1925 20.45 70.1587 20.12L69.1639 20.222ZM69.954 20.8273H66.6755V21.8273H69.954V20.8273ZM62.6627 3.76364V10.0573H63.6627V3.76364H62.6627ZM63.1627 10.5573H64.4215V9.55728H63.1627V10.5573ZM64.4215 10.5573C65.1119 10.5573 65.7195 10.3777 66.1786 9.95793L65.5038 9.2199C65.2799 9.42462 64.941 9.55728 64.4215 9.55728V10.5573ZM66.1786 9.95793C66.6801 9.49942 66.8535 8.75014 66.8535 7.8911H65.8535C65.8535 8.67134 65.6853 9.05393 65.5038 9.2199L66.1786 9.95793ZM66.8535 7.8911V5.87128H65.8535V7.8911H66.8535ZM66.8535 5.87128C66.8535 5.09277 66.7195 4.41578 66.3498 3.95034L65.5667 4.57222C65.724 4.7703 65.8535 5.16663 65.8535 5.87128H66.8535ZM66.3498 3.95034C65.9619 3.46186 65.3777 3.26364 64.7142 3.26364V4.26364C65.1826 4.26364 65.4277 4.39717 65.5667 4.57222L66.3498 3.95034ZM64.7142 3.26364H63.1627V4.26364H64.7142V3.26364ZM74.6144 0.83637V16.6436H75.6144V0.83637H74.6144ZM74.6144 16.6436C74.6144 17.425 74.7685 18.117 75.2204 18.5544L75.9158 17.8358C75.7628 17.6877 75.6144 17.3454 75.6144 16.6436H74.6144ZM75.2204 18.5544C75.6347 18.9553 76.1741 19.1342 76.7829 19.1342V18.1342C76.377 18.1342 76.1065 18.0203 75.9158 17.8358L75.2204 18.5544ZM76.7829 19.1342C77.3917 19.1342 77.9312 18.9553 78.3455 18.5544L77.65 17.8358C77.4594 18.0203 77.1889 18.1342 76.7829 18.1342V19.1342ZM78.3455 18.5544C78.7974 18.117 78.9515 17.425 78.9515 16.6436H77.9515C77.9515 17.3454 77.8031 17.6877 77.65 17.8358L78.3455 18.5544ZM78.9515 16.6436V0.83637H77.9515V16.6436H78.9515ZM78.4515 1.33637H81.4958V0.33637H78.4515V1.33637ZM80.9958 0.83637V16.4387H81.9958V0.83637H80.9958ZM80.9958 16.4387C80.9958 18.0206 80.6101 19.1561 79.9116 19.9219L80.6504 20.5958C81.5717 19.5857 81.9958 18.1745 81.9958 16.4387H80.9958ZM79.9116 19.9219C79.2239 20.6758 78.182 21.0907 76.6951 21.0907V22.0907C78.3697 22.0907 79.7184 21.6177 80.6504 20.5958L79.9116 19.9219ZM76.6951 21.0907C75.2083 21.0907 74.1663 20.6758 73.4786 19.9219L72.7398 20.5958C73.6719 21.6177 75.0205 22.0907 76.6951 22.0907V21.0907ZM73.4786 19.9219C72.7801 19.1561 72.3944 18.0206 72.3944 16.4387H71.3944C71.3944 18.1745 71.8185 19.5857 72.7398 20.5958L73.4786 19.9219ZM72.3944 16.4387V0.83637H71.3944V16.4387H72.3944ZM71.8944 1.33637H75.1144V0.33637H71.8944V1.33637ZM92.8202 1.33637H102.773V0.33637H92.8202V1.33637ZM102.273 0.83637V3.76364H103.273V0.83637H102.273ZM102.773 3.26364H99.4066V4.26364H102.773V3.26364ZM98.9066 3.76364V21.3273H99.9066V3.76364H98.9066ZM99.4066 20.8273H96.1866V21.8273H99.4066V20.8273ZM96.6866 21.3273V3.76364H95.6866V21.3273H96.6866ZM96.1866 3.26364H92.8202V4.26364H96.1866V3.26364ZM93.3202 3.76364V0.83637H92.3202V3.76364H93.3202Z" fill="black"/>
<path fill-rule="evenodd" clip-rule="evenodd" d="M83.0254 11.4851L91.389 1.03058V21.9397L83.0254 11.4851Z" fill="#00A4E5"/>
</svg>
